<svg width="40" height="40" viewBox="0 0 40 40" fill="none" xmlns="http://www.w3.org/2000/svg">
<path d="M35.0029 5.12187C34.0287 5.07919 33.0356 5.37031 32.2169 5.97499L30.0201 7.59686L19.9998 15.0047L10.0732 7.66718C9.93486 7.532 9.75224 7.45152 9.55913 7.44061H9.75914L7.78726 5.98124C6.96808 5.37506 5.97348 5.0823 4.9982 5.12499C4.02292 5.16768 3.06772 5.54516 2.32632 6.27655C1.38452 7.20509 0.79976 8.50385 0.79976 9.92811V12.675C0.788101 12.7532 0.788101 12.8327 0.79976 12.9109V31.6C0.79976 33.1369 2.06281 34.4 3.59976 34.4H9.59976C9.81193 34.4 10.0154 34.3157 10.1654 34.1657C10.3154 34.0156 10.3997 33.8122 10.3998 33.6V20.2984L19.5248 27.0437C19.6623 27.1452 19.8288 27.2 19.9998 27.2C20.1707 27.2 20.3372 27.1452 20.4748 27.0437L29.5998 20.2984V33.6C29.5998 33.8122 29.6841 34.0156 29.8341 34.1657C29.9841 34.3157 30.1876 34.4 30.3998 34.4H36.3998C37.9367 34.4 39.1998 33.1369 39.1998 31.6V12.8953C39.2088 12.8263 39.2088 12.7565 39.1998 12.6875V9.92811C39.1998 8.52135 38.6321 7.22862 37.7029 6.29843C37.676 6.27157 37.667 6.26413 37.6779 6.27499C37.6763 6.27342 37.6748 6.27186 37.6732 6.2703C36.932 5.54053 35.977 5.16454 35.0029 5.12187ZM34.9154 6.7203C35.5204 6.74402 36.107 6.9735 36.5513 7.41093C36.5665 7.42586 36.5775 7.43714 36.5701 7.42968C37.2072 8.06749 37.5998 8.95088 37.5998 9.92811V12.3969L31.1998 17.1266V8.79999C31.2001 8.77287 31.1991 8.74575 31.1966 8.71874L33.1669 7.26249C33.1675 7.26249 33.168 7.26249 33.1685 7.26249C33.6874 6.87917 34.3103 6.69658 34.9154 6.7203ZM5.0857 6.72499C5.69142 6.70128 6.31647 6.88296 6.8357 7.26718L8.80289 8.72186C8.80057 8.74784 8.79953 8.77391 8.79976 8.79999V17.1266L2.39976 12.3969V9.92811C2.39976 8.93958 2.80117 8.05507 3.44976 7.41561C3.89397 6.9774 4.47998 6.7487 5.0857 6.72499ZM29.5998 9.89686V18.3094L19.9998 25.4047L10.3998 18.3094V9.89843L19.5248 16.6437C19.6623 16.7452 19.8288 16.8 19.9998 16.8C20.1707 16.8 20.3372 16.7452 20.4748 16.6437L29.5998 9.89686ZM2.39976 14.3859L8.79976 19.1172V32.8H3.59976C2.92711 32.8 2.39976 32.2726 2.39976 31.6V14.3859ZM37.5998 14.3859V31.6C37.5998 32.2726 37.0724 32.8 36.3998 32.8H31.1998V19.1172L37.5998 14.3859Z" fill="black"/>
</svg>
