<svg width="40" height="40" viewBox="0 0 40 40" fill="none" xmlns="http://www.w3.org/2000/svg">
<path d="M18.8728 16.4227L12.3921 23.2843L18.2899 20.0482L21.3716 23.2843L27.816 16.4227L21.9835 19.6021L18.8728 16.4227Z" fill="black"/>
<path d="M20 0C8.95599 0 0 8.95599 0 20C0 31.044 8.95599 40 20 40C31.044 40 40 31.044 40 20C40 8.95599 31.044 0 20 0ZM20.1562 30.7059C18.9182 30.7059 17.7231 30.531 16.5988 30.2072L12.5656 32.5V28.1866C9.8642 26.131 8.13904 23.0002 8.13904 19.4937C8.13904 13.3011 13.5193 8.28125 20.1562 8.28125C26.7935 8.28125 32.1735 13.3011 32.1735 19.4937C32.1735 25.6857 26.7935 30.7059 20.1562 30.7059V30.7059Z" fill="black"/>
</svg>
