<svg width="29" height="16" viewBox="0 0 29 16" fill="none" xmlns="http://www.w3.org/2000/svg">
<path d="M0.955273 8.77786e-05C1.18765 8.77786e-05 1.42098 0.0844433 1.60465 0.255381C10.1636 8.20002 18.4845 8.20002 27.0442 0.255381C27.4306 -0.103684 28.0348 -0.0814011 28.3938 0.305358C28.7526 0.691799 28.7303 1.29597 28.3436 1.65504C19.041 10.2898 9.60754 10.2898 0.305263 1.65504C-0.0811778 1.29597 -0.103778 0.691799 0.255287 0.305358C0.443415 0.102906 0.698707 8.77786e-05 0.955273 8.77786e-05Z" fill="#626A79"/>
<path d="M14.3243 10.5493C14.8518 10.5493 15.2793 10.9768 15.2793 11.5042V14.9271C15.2793 15.4546 14.8518 15.8821 14.3243 15.8821C13.7969 15.8821 13.3694 15.4546 13.3694 14.9271V11.5045C13.3694 10.9771 13.7969 10.5493 14.3243 10.5493Z" fill="#626A79"/>
<path d="M4.59403 7.5039C4.85378 7.5039 5.1129 7.60926 5.30134 7.81681C5.65595 8.20739 5.62667 8.81124 5.2364 9.16585L2.80539 11.3734C2.41513 11.7277 1.81096 11.6987 1.45667 11.3081C1.10206 10.9176 1.13135 10.3137 1.52161 9.9591L3.95262 7.75155C4.13502 7.58571 4.36484 7.5039 4.59403 7.5039Z" fill="#626A79"/>
<path d="M24.0552 7.50383C24.2841 7.50383 24.5139 7.58564 24.697 7.7518L27.1277 9.95935C27.5182 10.314 27.5472 10.9178 27.1926 11.3081C26.8386 11.699 26.2341 11.7279 25.8439 11.373L23.4132 9.16546C23.0226 8.81085 22.9936 8.207 23.3482 7.81674C23.5364 7.6092 23.7952 7.50383 24.0552 7.50383Z" fill="#626A79"/>
</svg>
