<svg width="29" height="23" viewBox="0 0 29 23" fill="none" xmlns="http://www.w3.org/2000/svg">
<path d="M14.3245 22.5524C11.3406 22.5524 8.91309 20.1249 8.91309 17.1409C8.91309 14.157 11.3406 11.7295 14.3245 11.7295C17.3085 11.7295 19.736 14.157 19.736 17.1409C19.736 20.1249 17.3085 22.5524 14.3245 22.5524ZM14.3245 13.6394C12.3939 13.6394 10.823 15.2103 10.823 17.1409C10.823 19.0716 12.3939 20.6425 14.3245 20.6425C16.2551 20.6425 17.8261 19.0716 17.8261 17.1409C17.8261 15.2103 16.2551 13.6394 14.3245 13.6394Z" fill="#626A79"/>
<path d="M27.6937 15.882C27.4613 15.882 27.2279 15.7976 27.0443 15.6267C18.4853 7.68206 10.1644 7.68206 1.60476 15.6267C1.21832 15.9858 0.614145 15.9635 0.25508 15.5767C-0.103667 15.1903 -0.0813849 14.5861 0.305374 14.227C9.60797 5.59229 19.0414 5.59229 28.3437 14.227C28.7301 14.5861 28.7527 15.1903 28.3936 15.5767C28.2055 15.7792 27.9502 15.882 27.6937 15.882Z" fill="#626A79"/>
<path d="M14.3246 5.33282C13.7971 5.33282 13.3696 4.90532 13.3696 4.37786V0.954961C13.3696 0.427504 13.7971 0 14.3246 0C14.852 0 15.2796 0.427504 15.2796 0.954961V4.37754C15.2796 4.905 14.852 5.33282 14.3246 5.33282Z" fill="#626A79"/>
<path d="M24.0549 8.37818C23.7951 8.37818 23.536 8.27282 23.3476 8.06527C22.993 7.67469 23.0223 7.07084 23.4125 6.71623L25.8435 4.50868C26.2338 4.15439 26.838 4.18336 27.1923 4.57393C27.5469 4.96451 27.5176 5.56837 27.1273 5.92298L24.6963 8.13053C24.5139 8.29637 24.2841 8.37818 24.0549 8.37818Z" fill="#626A79"/>
<path d="M4.5937 8.37825C4.36483 8.37825 4.135 8.29644 3.95197 8.13028L1.52127 5.92273C1.1307 5.56812 1.10173 4.96426 1.45634 4.574C1.81031 4.18311 2.4148 4.15414 2.80506 4.50907L5.23575 6.71662C5.62633 7.07123 5.6553 7.67508 5.30069 8.06534C5.11256 8.27288 4.85377 8.37825 4.5937 8.37825Z" fill="#626A79"/>
</svg>
