<svg width="19" height="19" viewBox="0 0 19 19" fill="none" xmlns="http://www.w3.org/2000/svg">
<g clip-path="url(#clip0_156_2)">
<path d="M18.4617 13.2403L12.2221 2.42726C11.6599 1.4536 10.6211 0.853638 9.49654 0.853638C8.37203 0.853638 7.33324 1.4536 6.77099 2.42726L0.421689 13.4255C-0.140563 14.3991 -0.140563 15.5991 0.421689 16.5727C0.983941 17.5464 2.02274 18.1463 3.14724 18.1463H15.8459C15.8494 18.1463 15.8528 18.1463 15.8528 18.1463C17.5909 18.1463 19 16.7372 19 14.9991C19 14.3477 18.8012 13.7409 18.4617 13.2403ZM10.8439 14.2928C10.8439 15.0368 10.2714 15.6059 9.5 15.6059C8.72862 15.6059 8.15608 15.0368 8.15608 14.2928V14.262C8.15608 13.5214 8.72862 12.9489 9.5 12.9489C10.2714 12.9489 10.8439 13.518 10.8439 14.262V14.2928ZM10.8748 5.4408L10.2097 11.2485C10.1651 11.6667 9.88741 11.9273 9.5 11.9273C9.1126 11.9273 8.8349 11.6633 8.79033 11.2485L8.12523 5.43737C8.08066 4.98825 8.32411 4.64885 8.74233 4.64885H10.2542C10.6725 4.65227 10.9193 4.99168 10.8748 5.4408Z" fill="#EA2525"/>
</g>
<defs>
<clipPath id="clip0_156_2">
<rect width="19" height="19" fill="white"/>
</clipPath>
</defs>
</svg>
