<svg width="33" height="33" viewBox="0 0 33 33" fill="none" xmlns="http://www.w3.org/2000/svg">
<g clip-path="url(#clip0_3_24)">
<path d="M7.97161 32.8137C7.63691 32.3492 8.05358 31.3451 9.03035 30.2727C10.7858 28.3533 12.5413 26.4066 14.3992 24.576C17.2612 21.7481 20.1984 18.9954 23.1014 16.2153C17.6779 11.6388 12.8555 6.27678 7.70522 1.33825C7.45931 1.10601 7.2544 0.559565 7.2544 0.320494C7.2544 -0.150816 7.75986 -0.0415287 8.36778 0.25902C10.3692 1.26312 12.4047 2.86831 14.3172 4.65793C18.0263 8.14153 21.7763 11.5705 25.3623 15.2112L25.376 15.2249C25.8746 15.7303 25.8678 16.5432 25.3623 17.0418C24.488 17.9025 23.6 18.7631 22.6984 19.6033C22.1588 20.177 21.626 20.7508 21.0864 21.3178C17.6437 24.9175 14.1465 28.4626 10.4443 31.7686C9.38554 32.718 8.33363 33.326 7.97161 32.8137Z" fill="#626A79"/>
</g>
<defs>
<clipPath id="clip0_3_24">
<rect width="33" height="33" fill="white" transform="matrix(0 -1 -1 0 33 33)"/>
</clipPath>
</defs>
</svg>
