<svg width="33" height="33" viewBox="0 0 33 33" fill="none" xmlns="http://www.w3.org/2000/svg">
<g clip-path="url(#clip0_3_5)">
<path d="M25.0284 0.18634C25.3631 0.650821 24.9464 1.65492 23.9696 2.72732C22.2142 4.64672 20.4587 6.59344 18.6008 8.42405C15.7388 11.2519 12.8016 14.0046 9.89861 16.7847C15.3221 21.3612 20.1445 26.7232 25.2948 31.6617C25.5407 31.894 25.7456 32.4404 25.7456 32.6795C25.7456 33.1508 25.2401 33.0415 24.6322 32.741C22.6308 31.7369 20.5953 30.1317 18.6828 28.3421C14.9737 24.8585 11.2237 21.4295 7.63768 17.7888L7.62402 17.7751C7.12538 17.2697 7.13221 16.4568 7.63768 15.9582C8.512 15.0975 9.39997 14.2369 10.3016 13.3967C10.8412 12.823 11.374 12.2492 11.9136 11.6822C15.3563 8.08251 18.8535 4.53743 22.5557 1.23142C23.6145 0.281969 24.6664 -0.325955 25.0284 0.18634Z" fill="#626A79"/>
</g>
<defs>
<clipPath id="clip0_3_5">
<rect width="33" height="33" fill="white" transform="matrix(0 1 1 0 0 0)"/>
</clipPath>
</defs>
</svg>
