<svg width="24" height="24" viewBox="0 0 24 24" fill="none" xmlns="http://www.w3.org/2000/svg">
<g clip-path="url(#clip0_93_57)">
<path d="M23.6423 0.274737C23.6393 0.272724 23.6383 0.269728 23.6363 0.267762C23.6303 0.262753 23.6243 0.26177 23.6184 0.256761C23.5654 0.210836 23.5025 0.180874 23.4406 0.147917C23.4206 0.137945 23.4056 0.120952 23.3847 0.111963C23.3817 0.11098 23.3796 0.11098 23.3777 0.10995C23.3557 0.100962 23.3377 0.0849983 23.3157 0.0769931C23.2328 0.0460487 23.145 0.0360304 23.0561 0.0280719C23.0291 0.0260589 23.0031 0.0140744 22.9761 0.0140744C22.8603 0.0130913 22.7434 0.0320512 22.6296 0.0730138L0.658006 8.06265C0.309472 8.18947 0.0597635 8.4991 0.00882936 8.8666C-0.0400918 9.23414 0.11669 9.59864 0.419299 9.81436L7.06171 14.5592L7.9995 21.1277C8.05741 21.5272 8.35005 21.8528 8.74155 21.9537C8.82343 21.9746 8.90732 21.9846 8.98925 21.9846C9.29785 21.9846 9.59648 21.8408 9.7872 21.5852L12.1442 18.4442L18.3252 23.7454C18.51 23.9032 18.7407 23.986 18.9763 23.986C19.0882 23.986 19.2 23.9671 19.3099 23.9291C19.6454 23.8093 19.8941 23.5186 19.958 23.1671L23.9838 1.21449C24.0498 0.854956 23.91 0.501413 23.6423 0.274737ZM11.2414 16.31L11.1694 16.4139L9.63641 18.4582L9.05615 14.3935L17.7219 6.88218L11.2414 16.31Z" fill="white"/>
</g>
<defs>
<clipPath id="clip0_93_57">
<rect width="24" height="24" fill="white"/>
</clipPath>
</defs>
</svg>
