<svg width="27" height="23" viewBox="0 0 27 23" fill="none" xmlns="http://www.w3.org/2000/svg">
<g clip-path="url(#clip0_2_17)">
<path d="M9.95768 14.2363H23.5546C24.3286 14.2363 24.7441 13.3863 24.9613 12.6215L27 2.85904H6.51288L8.55101 12.6215C8.71305 13.3955 9.18404 14.2363 9.95768 14.2363ZM21.4071 11.7439L22.8138 4.97412C22.8944 4.58592 23.2669 4.33756 23.6478 4.42023C24.0275 4.50262 24.2702 4.88446 24.1896 5.27271L22.7829 12.0424C22.7126 12.3805 22.4208 12.6121 22.0956 12.6121C22.0473 12.6121 21.9981 12.6068 21.949 12.5963C21.5689 12.5139 21.3267 12.1323 21.4071 11.7439ZM17.877 11.8423L18.3461 5.07261C18.3733 4.67661 18.7085 4.3786 19.0973 4.40634C19.4847 4.43434 19.7765 4.77817 19.7491 5.17444L19.28 11.9442C19.2539 12.323 18.9452 12.6124 18.5793 12.6124C18.5625 12.6124 18.5459 12.6118 18.5289 12.6107C18.1414 12.5821 17.8496 12.2383 17.877 11.8423ZM14.3092 4.40611C14.6936 4.37752 15.0332 4.67638 15.0604 5.07239L15.5292 11.8421C15.5569 12.2381 15.2645 12.5819 14.8774 12.6102C14.8603 12.6114 14.8438 12.6119 14.8269 12.6119C14.461 12.6119 14.1523 12.3225 14.1263 11.9437L13.6575 5.17426C13.6297 4.77821 13.9218 4.43412 14.3092 4.40611ZM9.75871 4.42023C10.139 4.33783 10.5118 4.58587 10.5927 4.97412L11.9994 11.7439C12.08 12.1321 11.8376 12.5139 11.4573 12.5963C11.4081 12.6072 11.359 12.6122 11.3107 12.6122C10.9857 12.6122 10.6936 12.3805 10.6233 12.0425L9.2166 5.27275C9.136 4.88419 9.37869 4.50267 9.75871 4.42023Z" fill="white"/>
<path d="M10.8475 18.1537C9.52086 18.1537 8.44537 19.2531 8.44537 20.6092C8.44537 21.9653 9.52091 23.0647 10.8475 23.0647C12.1741 23.0647 13.2497 21.9653 13.2497 20.6092C13.2497 19.253 12.1742 18.1537 10.8475 18.1537ZM10.8475 21.5299C10.3499 21.5299 9.94682 21.1178 9.94682 20.6092C9.94682 20.1008 10.3499 19.6885 10.8475 19.6885C11.3451 19.6885 11.7482 20.1008 11.7482 20.6092C11.7485 21.1178 11.3451 21.5299 10.8475 21.5299Z" fill="white"/>
<path d="M22.2579 18.1537C20.9309 18.1537 19.8554 19.2531 19.8554 20.6092C19.8554 21.9653 20.9309 23.0647 22.2579 23.0647C23.5845 23.0647 24.66 21.9653 24.66 20.6092C24.66 19.253 23.5845 18.1537 22.2579 18.1537ZM22.2579 21.5299C21.7603 21.5299 21.3572 21.1178 21.3572 20.6092C21.3572 20.1008 21.7603 19.6885 22.2579 19.6885C22.7552 19.6885 23.1586 20.1008 23.1586 20.6092C23.1588 21.1178 22.7551 21.5299 22.2579 21.5299Z" fill="white"/>
<path d="M25.8962 19.7257H7.71491C7.0607 19.7257 6.50067 19.2706 6.35328 18.6193L2.95188 3.62669H0.814404C0.364585 3.62669 0 3.254 0 2.79419C0 2.33437 0.364585 1.96173 0.81436 1.96173H3.13563C3.78932 1.96173 4.34934 2.41654 4.49727 3.06725L7.89892 18.0608H25.8965C26.3463 18.0608 26.7109 18.4334 26.7109 18.8933C26.7106 19.3533 26.3463 19.7257 25.8962 19.7257Z" fill="white"/>
</g>
<defs>
<clipPath id="clip0_2_17">
<rect width="27" height="23" fill="white"/>
</clipPath>
</defs>
</svg>
