<svg width="34" height="34" viewBox="0 0 34 34" fill="none" xmlns="http://www.w3.org/2000/svg">
<g clip-path="url(#clip0_93_72)">
<path d="M34 17C34 7.61016 26.3898 0 17 0C7.61016 0 0 7.61016 0 17C0 26.3898 7.61016 34 17 34C17.0996 34 17.1992 34 17.2988 33.9934V20.7652H13.6465V16.5086H17.2988V13.3742C17.2988 9.7418 19.5168 7.76289 22.7574 7.76289C24.3113 7.76289 25.6461 7.87578 26.0312 7.92891V11.7273H23.8C22.0402 11.7273 21.6949 12.5641 21.6949 13.7926V16.502H25.9117L25.3605 20.7586H21.6949V33.3426C28.8004 31.3039 34 24.7629 34 17V17Z" fill="black"/>
</g>
<defs>
<clipPath id="clip0_93_72">
<rect width="34" height="34" fill="white"/>
</clipPath>
</defs>
</svg>
